<mxfile host="Electron" agent="Mozilla/5.0 (Windows NT 10.0; Win64; x64) AppleWebKit/537.36 (KHTML, like Gecko) draw.io/28.2.7 Chrome/138.0.7204.251 Electron/37.7.1 Safari/537.36" version="28.2.7">
  <diagram name="Page-1" id="FJoYEdllg18ow3f9UYxZ">
    <mxGraphModel dx="1426" dy="841" grid="1" gridSize="10" guides="1" tooltips="1" connect="1" arrows="1" fold="1" page="1" pageScale="1" pageWidth="850" pageHeight="1100" math="0" shadow="0">
      <root>
        <mxCell id="0" />
        <mxCell id="1" parent="0" />
        <mxCell id="dPx7vL41GPMj5rOmJF7R-2" value="Request" style="whiteSpace=wrap;html=1;align=center;" vertex="1" parent="1">
          <mxGeometry x="465" y="530" width="100" height="40" as="geometry" />
        </mxCell>
        <mxCell id="dPx7vL41GPMj5rOmJF7R-3" value="Verified recepient" style="whiteSpace=wrap;html=1;align=center;" vertex="1" parent="1">
          <mxGeometry x="110" y="530" width="120" height="40" as="geometry" />
        </mxCell>
        <mxCell id="dPx7vL41GPMj5rOmJF7R-4" value="Doner" style="whiteSpace=wrap;html=1;align=center;" vertex="1" parent="1">
          <mxGeometry x="120" y="900" width="100" height="40" as="geometry" />
        </mxCell>
        <mxCell id="dPx7vL41GPMj5rOmJF7R-5" value="Inquiry" style="whiteSpace=wrap;html=1;align=center;" vertex="1" parent="1">
          <mxGeometry x="465" y="900" width="100" height="40" as="geometry" />
        </mxCell>
        <mxCell id="dPx7vL41GPMj5rOmJF7R-9" value="unemployed" style="ellipse;whiteSpace=wrap;html=1;align=center;" vertex="1" parent="1">
          <mxGeometry x="170" y="250" width="100" height="40" as="geometry" />
        </mxCell>
        <mxCell id="dPx7vL41GPMj5rOmJF7R-10" value="non-government" style="ellipse;whiteSpace=wrap;html=1;align=center;" vertex="1" parent="1">
          <mxGeometry x="100" y="180" width="100" height="40" as="geometry" />
        </mxCell>
        <mxCell id="dPx7vL41GPMj5rOmJF7R-11" value="government" style="ellipse;whiteSpace=wrap;html=1;align=center;" vertex="1" parent="1">
          <mxGeometry x="30" y="240" width="100" height="40" as="geometry" />
        </mxCell>
        <mxCell id="dPx7vL41GPMj5rOmJF7R-12" value="employeemnet category" style="ellipse;whiteSpace=wrap;html=1;align=center;" vertex="1" parent="1">
          <mxGeometry x="110" y="370" width="100" height="40" as="geometry" />
        </mxCell>
        <mxCell id="dPx7vL41GPMj5rOmJF7R-13" value="employeemnet status" style="ellipse;whiteSpace=wrap;html=1;align=center;" vertex="1" parent="1">
          <mxGeometry x="40" y="410" width="100" height="40" as="geometry" />
        </mxCell>
        <mxCell id="dPx7vL41GPMj5rOmJF7R-14" value="grama niladhari division" style="ellipse;whiteSpace=wrap;html=1;align=center;" vertex="1" parent="1">
          <mxGeometry x="220" y="350" width="110" height="50" as="geometry" />
        </mxCell>
        <mxCell id="dPx7vL41GPMj5rOmJF7R-15" value="divisional decratarial" style="ellipse;whiteSpace=wrap;html=1;align=center;" vertex="1" parent="1">
          <mxGeometry x="325" y="330" width="100" height="40" as="geometry" />
        </mxCell>
        <mxCell id="dPx7vL41GPMj5rOmJF7R-16" value="district" style="ellipse;whiteSpace=wrap;html=1;align=center;" vertex="1" parent="1">
          <mxGeometry x="345" y="400" width="100" height="40" as="geometry" />
        </mxCell>
        <mxCell id="dPx7vL41GPMj5rOmJF7R-17" value="province" style="ellipse;whiteSpace=wrap;html=1;align=center;" vertex="1" parent="1">
          <mxGeometry x="390" y="460" width="100" height="40" as="geometry" />
        </mxCell>
        <mxCell id="dPx7vL41GPMj5rOmJF7R-35" value="" style="endArrow=none;html=1;rounded=0;exitX=1;exitY=0;exitDx=0;exitDy=0;entryX=0;entryY=0.5;entryDx=0;entryDy=0;" edge="1" parent="1" source="dPx7vL41GPMj5rOmJF7R-3" target="dPx7vL41GPMj5rOmJF7R-17">
          <mxGeometry width="50" height="50" relative="1" as="geometry">
            <mxPoint x="640" y="410" as="sourcePoint" />
            <mxPoint x="690" y="360" as="targetPoint" />
          </mxGeometry>
        </mxCell>
        <mxCell id="dPx7vL41GPMj5rOmJF7R-36" value="" style="endArrow=none;html=1;rounded=0;exitX=0.75;exitY=0;exitDx=0;exitDy=0;entryX=0.25;entryY=1;entryDx=0;entryDy=0;entryPerimeter=0;" edge="1" parent="1" source="dPx7vL41GPMj5rOmJF7R-3" target="dPx7vL41GPMj5rOmJF7R-16">
          <mxGeometry width="50" height="50" relative="1" as="geometry">
            <mxPoint x="670" y="450" as="sourcePoint" />
            <mxPoint x="720" y="400" as="targetPoint" />
          </mxGeometry>
        </mxCell>
        <mxCell id="dPx7vL41GPMj5rOmJF7R-37" value="" style="endArrow=none;html=1;rounded=0;exitX=0.5;exitY=1;exitDx=0;exitDy=0;entryX=0.5;entryY=0;entryDx=0;entryDy=0;" edge="1" parent="1" source="dPx7vL41GPMj5rOmJF7R-48" target="dPx7vL41GPMj5rOmJF7R-2">
          <mxGeometry width="50" height="50" relative="1" as="geometry">
            <mxPoint x="680" y="470" as="sourcePoint" />
            <mxPoint x="730" y="420" as="targetPoint" />
          </mxGeometry>
        </mxCell>
        <mxCell id="dPx7vL41GPMj5rOmJF7R-38" value="" style="endArrow=none;html=1;rounded=0;exitX=1;exitY=0.5;exitDx=0;exitDy=0;entryX=0;entryY=0.5;entryDx=0;entryDy=0;" edge="1" parent="1" source="dPx7vL41GPMj5rOmJF7R-3" target="dPx7vL41GPMj5rOmJF7R-47">
          <mxGeometry width="50" height="50" relative="1" as="geometry">
            <mxPoint x="680" y="470" as="sourcePoint" />
            <mxPoint x="730" y="420" as="targetPoint" />
          </mxGeometry>
        </mxCell>
        <mxCell id="dPx7vL41GPMj5rOmJF7R-39" value="" style="endArrow=none;html=1;rounded=0;entryX=0.603;entryY=1.011;entryDx=0;entryDy=0;entryPerimeter=0;exitX=0.5;exitY=0;exitDx=0;exitDy=0;" edge="1" parent="1" source="dPx7vL41GPMj5rOmJF7R-48" target="dPx7vL41GPMj5rOmJF7R-1">
          <mxGeometry width="50" height="50" relative="1" as="geometry">
            <mxPoint x="680" y="470" as="sourcePoint" />
            <mxPoint x="730" y="420" as="targetPoint" />
          </mxGeometry>
        </mxCell>
        <mxCell id="dPx7vL41GPMj5rOmJF7R-40" value="" style="endArrow=none;html=1;rounded=0;entryX=0.415;entryY=0.998;entryDx=0;entryDy=0;entryPerimeter=0;exitX=0.761;exitY=0.056;exitDx=0;exitDy=0;exitPerimeter=0;" edge="1" parent="1" source="dPx7vL41GPMj5rOmJF7R-12" target="dPx7vL41GPMj5rOmJF7R-9">
          <mxGeometry width="50" height="50" relative="1" as="geometry">
            <mxPoint x="90" y="420" as="sourcePoint" />
            <mxPoint x="730" y="420" as="targetPoint" />
          </mxGeometry>
        </mxCell>
        <mxCell id="dPx7vL41GPMj5rOmJF7R-41" value="" style="endArrow=none;html=1;rounded=0;entryX=0.5;entryY=1;entryDx=0;entryDy=0;exitX=0.438;exitY=-0.06;exitDx=0;exitDy=0;exitPerimeter=0;" edge="1" parent="1" source="dPx7vL41GPMj5rOmJF7R-12" target="dPx7vL41GPMj5rOmJF7R-10">
          <mxGeometry width="50" height="50" relative="1" as="geometry">
            <mxPoint x="90" y="380" as="sourcePoint" />
            <mxPoint x="730" y="420" as="targetPoint" />
          </mxGeometry>
        </mxCell>
        <mxCell id="dPx7vL41GPMj5rOmJF7R-42" value="" style="endArrow=none;html=1;rounded=0;exitX=0.068;exitY=0.267;exitDx=0;exitDy=0;exitPerimeter=0;entryX=0.5;entryY=1;entryDx=0;entryDy=0;" edge="1" parent="1" source="dPx7vL41GPMj5rOmJF7R-12" target="dPx7vL41GPMj5rOmJF7R-11">
          <mxGeometry width="50" height="50" relative="1" as="geometry">
            <mxPoint x="680" y="470" as="sourcePoint" />
            <mxPoint x="730" y="420" as="targetPoint" />
          </mxGeometry>
        </mxCell>
        <mxCell id="dPx7vL41GPMj5rOmJF7R-43" value="" style="endArrow=none;html=1;rounded=0;exitX=0.283;exitY=0.003;exitDx=0;exitDy=0;exitPerimeter=0;entryX=0.5;entryY=1;entryDx=0;entryDy=0;" edge="1" parent="1" source="dPx7vL41GPMj5rOmJF7R-3" target="dPx7vL41GPMj5rOmJF7R-12">
          <mxGeometry width="50" height="50" relative="1" as="geometry">
            <mxPoint x="680" y="470" as="sourcePoint" />
            <mxPoint x="730" y="420" as="targetPoint" />
          </mxGeometry>
        </mxCell>
        <mxCell id="dPx7vL41GPMj5rOmJF7R-44" value="" style="endArrow=none;html=1;rounded=0;exitX=0.114;exitY=0.003;exitDx=0;exitDy=0;entryX=0.5;entryY=1;entryDx=0;entryDy=0;exitPerimeter=0;" edge="1" parent="1" source="dPx7vL41GPMj5rOmJF7R-3" target="dPx7vL41GPMj5rOmJF7R-13">
          <mxGeometry width="50" height="50" relative="1" as="geometry">
            <mxPoint x="680" y="470" as="sourcePoint" />
            <mxPoint x="730" y="420" as="targetPoint" />
          </mxGeometry>
        </mxCell>
        <mxCell id="dPx7vL41GPMj5rOmJF7R-45" value="" style="endArrow=none;html=1;rounded=0;exitX=0.397;exitY=-0.021;exitDx=0;exitDy=0;exitPerimeter=0;entryX=0.5;entryY=1;entryDx=0;entryDy=0;" edge="1" parent="1" source="dPx7vL41GPMj5rOmJF7R-3" target="dPx7vL41GPMj5rOmJF7R-14">
          <mxGeometry width="50" height="50" relative="1" as="geometry">
            <mxPoint x="680" y="470" as="sourcePoint" />
            <mxPoint x="730" y="420" as="targetPoint" />
          </mxGeometry>
        </mxCell>
        <mxCell id="dPx7vL41GPMj5rOmJF7R-46" value="" style="endArrow=none;html=1;rounded=0;exitX=0.583;exitY=0;exitDx=0;exitDy=0;exitPerimeter=0;entryX=0.5;entryY=1;entryDx=0;entryDy=0;" edge="1" parent="1" source="dPx7vL41GPMj5rOmJF7R-3" target="dPx7vL41GPMj5rOmJF7R-15">
          <mxGeometry width="50" height="50" relative="1" as="geometry">
            <mxPoint x="680" y="470" as="sourcePoint" />
            <mxPoint x="730" y="420" as="targetPoint" />
          </mxGeometry>
        </mxCell>
        <mxCell id="dPx7vL41GPMj5rOmJF7R-47" value="post" style="shape=rhombus;perimeter=rhombusPerimeter;whiteSpace=wrap;html=1;align=center;" vertex="1" parent="1">
          <mxGeometry x="315" y="520" width="120" height="60" as="geometry" />
        </mxCell>
        <mxCell id="dPx7vL41GPMj5rOmJF7R-48" value="post" style="shape=rhombus;perimeter=rhombusPerimeter;whiteSpace=wrap;html=1;align=center;" vertex="1" parent="1">
          <mxGeometry x="455" y="320" width="120" height="60" as="geometry" />
        </mxCell>
        <mxCell id="dPx7vL41GPMj5rOmJF7R-49" value="occupation" style="ellipse;whiteSpace=wrap;html=1;align=center;" vertex="1" parent="1">
          <mxGeometry x="30" y="670" width="100" height="40" as="geometry" />
        </mxCell>
        <mxCell id="dPx7vL41GPMj5rOmJF7R-50" value="ID" style="ellipse;whiteSpace=wrap;html=1;align=center;" vertex="1" parent="1">
          <mxGeometry x="570" y="430" width="70" height="30" as="geometry" />
        </mxCell>
        <mxCell id="dPx7vL41GPMj5rOmJF7R-51" value="doner id" style="ellipse;whiteSpace=wrap;html=1;align=center;" vertex="1" parent="1">
          <mxGeometry x="530" y="1020" width="100" height="40" as="geometry" />
        </mxCell>
        <mxCell id="dPx7vL41GPMj5rOmJF7R-52" value="request id" style="ellipse;whiteSpace=wrap;html=1;align=center;" vertex="1" parent="1">
          <mxGeometry x="630" y="980" width="100" height="40" as="geometry" />
        </mxCell>
        <mxCell id="dPx7vL41GPMj5rOmJF7R-53" value="date" style="ellipse;whiteSpace=wrap;html=1;align=center;" vertex="1" parent="1">
          <mxGeometry x="670" y="920" width="100" height="40" as="geometry" />
        </mxCell>
        <mxCell id="dPx7vL41GPMj5rOmJF7R-54" value="ID" style="ellipse;whiteSpace=wrap;html=1;align=center;" vertex="1" parent="1">
          <mxGeometry x="655" y="850" width="100" height="40" as="geometry" />
        </mxCell>
        <mxCell id="dPx7vL41GPMj5rOmJF7R-55" value="occupastion" style="ellipse;whiteSpace=wrap;html=1;align=center;" vertex="1" parent="1">
          <mxGeometry x="245" y="990" width="100" height="40" as="geometry" />
        </mxCell>
        <mxCell id="dPx7vL41GPMj5rOmJF7R-56" value="organization" style="ellipse;whiteSpace=wrap;html=1;align=center;" vertex="1" parent="1">
          <mxGeometry x="150" y="1020" width="100" height="40" as="geometry" />
        </mxCell>
        <mxCell id="dPx7vL41GPMj5rOmJF7R-57" value="NIC" style="ellipse;whiteSpace=wrap;html=1;align=center;" vertex="1" parent="1">
          <mxGeometry x="70" y="990" width="100" height="40" as="geometry" />
        </mxCell>
        <mxCell id="dPx7vL41GPMj5rOmJF7R-58" value="name" style="ellipse;whiteSpace=wrap;html=1;align=center;" vertex="1" parent="1">
          <mxGeometry x="40" y="830" width="70" height="30" as="geometry" />
        </mxCell>
        <mxCell id="dPx7vL41GPMj5rOmJF7R-59" value="password" style="ellipse;whiteSpace=wrap;html=1;align=center;" vertex="1" parent="1">
          <mxGeometry x="80" y="780" width="80" height="40" as="geometry" />
        </mxCell>
        <mxCell id="dPx7vL41GPMj5rOmJF7R-60" value="email" style="ellipse;whiteSpace=wrap;html=1;align=center;" vertex="1" parent="1">
          <mxGeometry x="170" y="795" width="80" height="30" as="geometry" />
        </mxCell>
        <mxCell id="dPx7vL41GPMj5rOmJF7R-61" value="ID" style="ellipse;whiteSpace=wrap;html=1;align=center;" vertex="1" parent="1">
          <mxGeometry x="240" y="820" width="80" height="30" as="geometry" />
        </mxCell>
        <mxCell id="dPx7vL41GPMj5rOmJF7R-62" value="asset status" style="ellipse;whiteSpace=wrap;html=1;align=center;" vertex="1" parent="1">
          <mxGeometry x="355" y="620" width="100" height="40" as="geometry" />
        </mxCell>
        <mxCell id="dPx7vL41GPMj5rOmJF7R-63" value="health condition" style="ellipse;whiteSpace=wrap;html=1;align=center;" vertex="1" parent="1">
          <mxGeometry x="325" y="680" width="100" height="40" as="geometry" />
        </mxCell>
        <mxCell id="dPx7vL41GPMj5rOmJF7R-64" value="No of family members" style="ellipse;whiteSpace=wrap;html=1;align=center;" vertex="1" parent="1">
          <mxGeometry x="245" y="720" width="100" height="40" as="geometry" />
        </mxCell>
        <mxCell id="dPx7vL41GPMj5rOmJF7R-65" value="annual salary" style="ellipse;whiteSpace=wrap;html=1;align=center;" vertex="1" parent="1">
          <mxGeometry x="120" y="720" width="100" height="40" as="geometry" />
        </mxCell>
        <mxCell id="dPx7vL41GPMj5rOmJF7R-66" value="" style="endArrow=none;html=1;rounded=0;exitX=1;exitY=0.5;exitDx=0;exitDy=0;entryX=0;entryY=0.5;entryDx=0;entryDy=0;" edge="1" parent="1" source="dPx7vL41GPMj5rOmJF7R-47" target="dPx7vL41GPMj5rOmJF7R-2">
          <mxGeometry width="50" height="50" relative="1" as="geometry">
            <mxPoint x="340" y="540" as="sourcePoint" />
            <mxPoint x="440" y="540" as="targetPoint" />
          </mxGeometry>
        </mxCell>
        <mxCell id="dPx7vL41GPMj5rOmJF7R-67" value="" style="endArrow=none;html=1;rounded=0;exitX=0.5;exitY=1;exitDx=0;exitDy=0;entryX=0.5;entryY=0;entryDx=0;entryDy=0;" edge="1" parent="1" source="dPx7vL41GPMj5rOmJF7R-69" target="dPx7vL41GPMj5rOmJF7R-5">
          <mxGeometry width="50" height="50" relative="1" as="geometry">
            <mxPoint x="730" y="780" as="sourcePoint" />
            <mxPoint x="720" y="840" as="targetPoint" />
          </mxGeometry>
        </mxCell>
        <mxCell id="dPx7vL41GPMj5rOmJF7R-68" value="" style="endArrow=none;html=1;rounded=0;entryX=0.5;entryY=1;entryDx=0;entryDy=0;exitX=0.5;exitY=0;exitDx=0;exitDy=0;" edge="1" parent="1" source="dPx7vL41GPMj5rOmJF7R-69" target="dPx7vL41GPMj5rOmJF7R-2">
          <mxGeometry width="50" height="50" relative="1" as="geometry">
            <mxPoint x="730" y="780" as="sourcePoint" />
            <mxPoint x="720" y="580" as="targetPoint" />
          </mxGeometry>
        </mxCell>
        <mxCell id="dPx7vL41GPMj5rOmJF7R-69" value="has" style="shape=rhombus;perimeter=rhombusPerimeter;whiteSpace=wrap;html=1;align=center;" vertex="1" parent="1">
          <mxGeometry x="455" y="690" width="120" height="60" as="geometry" />
        </mxCell>
        <mxCell id="dPx7vL41GPMj5rOmJF7R-70" value="" style="endArrow=none;html=1;rounded=0;exitX=1;exitY=0.5;exitDx=0;exitDy=0;entryX=0;entryY=0.5;entryDx=0;entryDy=0;" edge="1" parent="1" source="dPx7vL41GPMj5rOmJF7R-72" target="dPx7vL41GPMj5rOmJF7R-5">
          <mxGeometry width="50" height="50" relative="1" as="geometry">
            <mxPoint x="480" y="940" as="sourcePoint" />
            <mxPoint x="470" y="1000" as="targetPoint" />
          </mxGeometry>
        </mxCell>
        <mxCell id="dPx7vL41GPMj5rOmJF7R-71" value="" style="endArrow=none;html=1;rounded=0;entryX=1;entryY=0.5;entryDx=0;entryDy=0;exitX=0;exitY=0.5;exitDx=0;exitDy=0;" edge="1" parent="1" source="dPx7vL41GPMj5rOmJF7R-72" target="dPx7vL41GPMj5rOmJF7R-4">
          <mxGeometry width="50" height="50" relative="1" as="geometry">
            <mxPoint x="480" y="940" as="sourcePoint" />
            <mxPoint x="470" y="740" as="targetPoint" />
          </mxGeometry>
        </mxCell>
        <mxCell id="dPx7vL41GPMj5rOmJF7R-72" value="inquire" style="shape=rhombus;perimeter=rhombusPerimeter;whiteSpace=wrap;html=1;align=center;" vertex="1" parent="1">
          <mxGeometry x="290" y="890" width="120" height="60" as="geometry" />
        </mxCell>
        <mxCell id="dPx7vL41GPMj5rOmJF7R-73" value="" style="endArrow=none;html=1;rounded=0;exitX=0.75;exitY=0;exitDx=0;exitDy=0;entryX=0.5;entryY=1;entryDx=0;entryDy=0;" edge="1" parent="1" source="dPx7vL41GPMj5rOmJF7R-2" target="dPx7vL41GPMj5rOmJF7R-50">
          <mxGeometry width="50" height="50" relative="1" as="geometry">
            <mxPoint x="262" y="709" as="sourcePoint" />
            <mxPoint x="180" y="600" as="targetPoint" />
          </mxGeometry>
        </mxCell>
        <mxCell id="dPx7vL41GPMj5rOmJF7R-74" value="" style="endArrow=none;html=1;rounded=0;exitX=0.911;exitY=0.998;exitDx=0;exitDy=0;exitPerimeter=0;entryX=0.015;entryY=0.267;entryDx=0;entryDy=0;entryPerimeter=0;" edge="1" parent="1" source="dPx7vL41GPMj5rOmJF7R-5" target="dPx7vL41GPMj5rOmJF7R-52">
          <mxGeometry width="50" height="50" relative="1" as="geometry">
            <mxPoint x="262" y="709" as="sourcePoint" />
            <mxPoint x="180" y="600" as="targetPoint" />
          </mxGeometry>
        </mxCell>
        <mxCell id="dPx7vL41GPMj5rOmJF7R-75" value="" style="endArrow=none;html=1;rounded=0;exitX=1;exitY=0.75;exitDx=0;exitDy=0;entryX=0;entryY=0.5;entryDx=0;entryDy=0;" edge="1" parent="1" source="dPx7vL41GPMj5rOmJF7R-5" target="dPx7vL41GPMj5rOmJF7R-53">
          <mxGeometry width="50" height="50" relative="1" as="geometry">
            <mxPoint x="262" y="709" as="sourcePoint" />
            <mxPoint x="180" y="600" as="targetPoint" />
          </mxGeometry>
        </mxCell>
        <mxCell id="dPx7vL41GPMj5rOmJF7R-76" value="" style="endArrow=none;html=1;rounded=0;entryX=0;entryY=0.5;entryDx=0;entryDy=0;exitX=1;exitY=0;exitDx=0;exitDy=0;" edge="1" parent="1" source="dPx7vL41GPMj5rOmJF7R-5" target="dPx7vL41GPMj5rOmJF7R-54">
          <mxGeometry width="50" height="50" relative="1" as="geometry">
            <mxPoint x="630" y="880" as="sourcePoint" />
            <mxPoint x="180" y="600" as="targetPoint" />
          </mxGeometry>
        </mxCell>
        <mxCell id="dPx7vL41GPMj5rOmJF7R-77" value="" style="endArrow=none;html=1;rounded=0;exitX=0.3;exitY=0;exitDx=0;exitDy=0;exitPerimeter=0;entryX=0.572;entryY=1.037;entryDx=0;entryDy=0;entryPerimeter=0;" edge="1" parent="1" source="dPx7vL41GPMj5rOmJF7R-51" target="dPx7vL41GPMj5rOmJF7R-5">
          <mxGeometry width="50" height="50" relative="1" as="geometry">
            <mxPoint x="262" y="709" as="sourcePoint" />
            <mxPoint x="180" y="600" as="targetPoint" />
          </mxGeometry>
        </mxCell>
        <mxCell id="dPx7vL41GPMj5rOmJF7R-78" value="" style="endArrow=none;html=1;rounded=0;entryX=0.819;entryY=1.05;entryDx=0;entryDy=0;entryPerimeter=0;exitX=0.324;exitY=0.042;exitDx=0;exitDy=0;exitPerimeter=0;" edge="1" parent="1" source="dPx7vL41GPMj5rOmJF7R-55" target="dPx7vL41GPMj5rOmJF7R-4">
          <mxGeometry width="50" height="50" relative="1" as="geometry">
            <mxPoint x="290" y="1020" as="sourcePoint" />
            <mxPoint x="180" y="600" as="targetPoint" />
          </mxGeometry>
        </mxCell>
        <mxCell id="dPx7vL41GPMj5rOmJF7R-79" value="" style="endArrow=none;html=1;rounded=0;exitX=0.5;exitY=0;exitDx=0;exitDy=0;entryX=0.5;entryY=1;entryDx=0;entryDy=0;" edge="1" parent="1" source="dPx7vL41GPMj5rOmJF7R-56" target="dPx7vL41GPMj5rOmJF7R-4">
          <mxGeometry width="50" height="50" relative="1" as="geometry">
            <mxPoint x="262" y="709" as="sourcePoint" />
            <mxPoint x="180" y="600" as="targetPoint" />
          </mxGeometry>
        </mxCell>
        <mxCell id="dPx7vL41GPMj5rOmJF7R-80" value="" style="endArrow=none;html=1;rounded=0;exitX=0.25;exitY=1;exitDx=0;exitDy=0;entryX=0.577;entryY=0.015;entryDx=0;entryDy=0;entryPerimeter=0;" edge="1" parent="1" source="dPx7vL41GPMj5rOmJF7R-4" target="dPx7vL41GPMj5rOmJF7R-57">
          <mxGeometry width="50" height="50" relative="1" as="geometry">
            <mxPoint x="262" y="709" as="sourcePoint" />
            <mxPoint x="180" y="600" as="targetPoint" />
          </mxGeometry>
        </mxCell>
        <mxCell id="dPx7vL41GPMj5rOmJF7R-81" value="" style="endArrow=none;html=1;rounded=0;exitX=0.5;exitY=1;exitDx=0;exitDy=0;entryX=0;entryY=0;entryDx=0;entryDy=0;" edge="1" parent="1" source="dPx7vL41GPMj5rOmJF7R-58" target="dPx7vL41GPMj5rOmJF7R-4">
          <mxGeometry width="50" height="50" relative="1" as="geometry">
            <mxPoint x="262" y="709" as="sourcePoint" />
            <mxPoint x="180" y="600" as="targetPoint" />
          </mxGeometry>
        </mxCell>
        <mxCell id="dPx7vL41GPMj5rOmJF7R-82" value="" style="endArrow=none;html=1;rounded=0;exitX=0.768;exitY=0.986;exitDx=0;exitDy=0;exitPerimeter=0;entryX=0.134;entryY=-0.014;entryDx=0;entryDy=0;entryPerimeter=0;" edge="1" parent="1" source="dPx7vL41GPMj5rOmJF7R-59" target="dPx7vL41GPMj5rOmJF7R-4">
          <mxGeometry width="50" height="50" relative="1" as="geometry">
            <mxPoint x="262" y="709" as="sourcePoint" />
            <mxPoint x="180" y="600" as="targetPoint" />
          </mxGeometry>
        </mxCell>
        <mxCell id="dPx7vL41GPMj5rOmJF7R-83" value="" style="endArrow=none;html=1;rounded=0;exitX=0.5;exitY=1;exitDx=0;exitDy=0;entryX=0.5;entryY=0;entryDx=0;entryDy=0;" edge="1" parent="1" source="dPx7vL41GPMj5rOmJF7R-60" target="dPx7vL41GPMj5rOmJF7R-4">
          <mxGeometry width="50" height="50" relative="1" as="geometry">
            <mxPoint x="262" y="709" as="sourcePoint" />
            <mxPoint x="180" y="600" as="targetPoint" />
          </mxGeometry>
        </mxCell>
        <mxCell id="dPx7vL41GPMj5rOmJF7R-84" value="" style="endArrow=none;html=1;rounded=0;exitX=0.395;exitY=1.017;exitDx=0;exitDy=0;exitPerimeter=0;entryX=0.822;entryY=-0.04;entryDx=0;entryDy=0;entryPerimeter=0;" edge="1" parent="1" source="dPx7vL41GPMj5rOmJF7R-61" target="dPx7vL41GPMj5rOmJF7R-4">
          <mxGeometry width="50" height="50" relative="1" as="geometry">
            <mxPoint x="271" y="719" as="sourcePoint" />
            <mxPoint x="189" y="610" as="targetPoint" />
          </mxGeometry>
        </mxCell>
        <mxCell id="dPx7vL41GPMj5rOmJF7R-85" value="" style="endArrow=none;html=1;rounded=0;exitX=0;exitY=0.5;exitDx=0;exitDy=0;entryX=0.833;entryY=0.998;entryDx=0;entryDy=0;entryPerimeter=0;" edge="1" parent="1" source="dPx7vL41GPMj5rOmJF7R-62" target="dPx7vL41GPMj5rOmJF7R-3">
          <mxGeometry width="50" height="50" relative="1" as="geometry">
            <mxPoint x="262" y="709" as="sourcePoint" />
            <mxPoint x="180" y="600" as="targetPoint" />
          </mxGeometry>
        </mxCell>
        <mxCell id="dPx7vL41GPMj5rOmJF7R-86" value="" style="endArrow=none;html=1;rounded=0;exitX=0;exitY=0;exitDx=0;exitDy=0;entryX=0.5;entryY=1;entryDx=0;entryDy=0;" edge="1" parent="1" source="dPx7vL41GPMj5rOmJF7R-63" target="dPx7vL41GPMj5rOmJF7R-3">
          <mxGeometry width="50" height="50" relative="1" as="geometry">
            <mxPoint x="262" y="709" as="sourcePoint" />
            <mxPoint x="180" y="600" as="targetPoint" />
          </mxGeometry>
        </mxCell>
        <mxCell id="dPx7vL41GPMj5rOmJF7R-87" value="" style="endArrow=none;html=1;rounded=0;exitX=0.445;exitY=-0.06;exitDx=0;exitDy=0;exitPerimeter=0;entryX=0.313;entryY=1.017;entryDx=0;entryDy=0;entryPerimeter=0;" edge="1" parent="1" source="dPx7vL41GPMj5rOmJF7R-64" target="dPx7vL41GPMj5rOmJF7R-3">
          <mxGeometry width="50" height="50" relative="1" as="geometry">
            <mxPoint x="262" y="709" as="sourcePoint" />
            <mxPoint x="180" y="600" as="targetPoint" />
          </mxGeometry>
        </mxCell>
        <mxCell id="dPx7vL41GPMj5rOmJF7R-88" value="" style="endArrow=none;html=1;rounded=0;exitX=0.753;exitY=0.037;exitDx=0;exitDy=0;exitPerimeter=0;entryX=0.204;entryY=0.96;entryDx=0;entryDy=0;entryPerimeter=0;" edge="1" parent="1" source="dPx7vL41GPMj5rOmJF7R-65" target="dPx7vL41GPMj5rOmJF7R-3">
          <mxGeometry width="50" height="50" relative="1" as="geometry">
            <mxPoint x="262" y="709" as="sourcePoint" />
            <mxPoint x="180" y="600" as="targetPoint" />
          </mxGeometry>
        </mxCell>
        <mxCell id="dPx7vL41GPMj5rOmJF7R-89" value="" style="endArrow=none;html=1;rounded=0;exitX=0.738;exitY=0.017;exitDx=0;exitDy=0;exitPerimeter=0;entryX=0.083;entryY=0.998;entryDx=0;entryDy=0;entryPerimeter=0;" edge="1" parent="1" source="dPx7vL41GPMj5rOmJF7R-49" target="dPx7vL41GPMj5rOmJF7R-3">
          <mxGeometry width="50" height="50" relative="1" as="geometry">
            <mxPoint x="262" y="709" as="sourcePoint" />
            <mxPoint x="180" y="600" as="targetPoint" />
          </mxGeometry>
        </mxCell>
        <mxCell id="dPx7vL41GPMj5rOmJF7R-92" value="verification status" style="ellipse;whiteSpace=wrap;html=1;align=center;" vertex="1" parent="1">
          <mxGeometry x="655" y="440" width="100" height="40" as="geometry" />
        </mxCell>
        <mxCell id="dPx7vL41GPMj5rOmJF7R-93" value="verified" style="ellipse;whiteSpace=wrap;html=1;align=center;" vertex="1" parent="1">
          <mxGeometry x="612.5" y="330" width="75" height="30" as="geometry" />
        </mxCell>
        <mxCell id="dPx7vL41GPMj5rOmJF7R-94" value="unverified" style="ellipse;whiteSpace=wrap;html=1;align=center;" vertex="1" parent="1">
          <mxGeometry x="675" y="300" width="80" height="30" as="geometry" />
        </mxCell>
        <mxCell id="dPx7vL41GPMj5rOmJF7R-95" value="fraud" style="ellipse;whiteSpace=wrap;html=1;align=center;" vertex="1" parent="1">
          <mxGeometry x="720" y="340" width="80" height="30" as="geometry" />
        </mxCell>
        <mxCell id="dPx7vL41GPMj5rOmJF7R-96" value="title" style="ellipse;whiteSpace=wrap;html=1;align=center;" vertex="1" parent="1">
          <mxGeometry x="710" y="490" width="70" height="30" as="geometry" />
        </mxCell>
        <mxCell id="dPx7vL41GPMj5rOmJF7R-97" value="Message" style="ellipse;whiteSpace=wrap;html=1;align=center;" vertex="1" parent="1">
          <mxGeometry x="700" y="530" width="80" height="40" as="geometry" />
        </mxCell>
        <mxCell id="dPx7vL41GPMj5rOmJF7R-98" value="other" style="ellipse;whiteSpace=wrap;html=1;align=center;" vertex="1" parent="1">
          <mxGeometry x="720" y="630" width="100" height="40" as="geometry" />
        </mxCell>
        <mxCell id="dPx7vL41GPMj5rOmJF7R-99" value="nutritional" style="ellipse;whiteSpace=wrap;html=1;align=center;" vertex="1" parent="1">
          <mxGeometry x="730" y="700" width="100" height="40" as="geometry" />
        </mxCell>
        <mxCell id="dPx7vL41GPMj5rOmJF7R-100" value="health" style="ellipse;whiteSpace=wrap;html=1;align=center;" vertex="1" parent="1">
          <mxGeometry x="585" y="700" width="100" height="40" as="geometry" />
        </mxCell>
        <mxCell id="dPx7vL41GPMj5rOmJF7R-101" value="educational" style="ellipse;whiteSpace=wrap;html=1;align=center;" vertex="1" parent="1">
          <mxGeometry x="665" y="750" width="100" height="40" as="geometry" />
        </mxCell>
        <mxCell id="dPx7vL41GPMj5rOmJF7R-102" value="financial" style="ellipse;whiteSpace=wrap;html=1;align=center;" vertex="1" parent="1">
          <mxGeometry x="540" y="650" width="100" height="40" as="geometry" />
        </mxCell>
        <mxCell id="dPx7vL41GPMj5rOmJF7R-103" value="category" style="ellipse;whiteSpace=wrap;html=1;align=center;" vertex="1" parent="1">
          <mxGeometry x="600" y="580" width="100" height="40" as="geometry" />
        </mxCell>
        <mxCell id="dPx7vL41GPMj5rOmJF7R-110" value="" style="endArrow=none;html=1;rounded=0;entryX=0.361;entryY=0.998;entryDx=0;entryDy=0;entryPerimeter=0;exitX=0.43;exitY=-0.013;exitDx=0;exitDy=0;exitPerimeter=0;" edge="1" parent="1" source="dPx7vL41GPMj5rOmJF7R-92" target="dPx7vL41GPMj5rOmJF7R-94">
          <mxGeometry relative="1" as="geometry">
            <mxPoint x="540" y="480" as="sourcePoint" />
            <mxPoint x="700" y="480" as="targetPoint" />
          </mxGeometry>
        </mxCell>
        <mxCell id="dPx7vL41GPMj5rOmJF7R-111" value="" style="endArrow=none;html=1;rounded=0;entryX=0.23;entryY=0.056;entryDx=0;entryDy=0;exitX=0.665;exitY=1.017;exitDx=0;exitDy=0;exitPerimeter=0;entryPerimeter=0;" edge="1" parent="1" source="dPx7vL41GPMj5rOmJF7R-93" target="dPx7vL41GPMj5rOmJF7R-92">
          <mxGeometry relative="1" as="geometry">
            <mxPoint x="540" y="480" as="sourcePoint" />
            <mxPoint x="700" y="480" as="targetPoint" />
          </mxGeometry>
        </mxCell>
        <mxCell id="dPx7vL41GPMj5rOmJF7R-112" value="" style="endArrow=none;html=1;rounded=0;exitX=0.392;exitY=1.001;exitDx=0;exitDy=0;entryX=0.6;entryY=0.007;entryDx=0;entryDy=0;entryPerimeter=0;exitPerimeter=0;" edge="1" parent="1" source="dPx7vL41GPMj5rOmJF7R-95" target="dPx7vL41GPMj5rOmJF7R-92">
          <mxGeometry relative="1" as="geometry">
            <mxPoint x="590" y="510" as="sourcePoint" />
            <mxPoint x="750" y="510" as="targetPoint" />
          </mxGeometry>
        </mxCell>
        <mxCell id="dPx7vL41GPMj5rOmJF7R-113" value="" style="endArrow=none;html=1;rounded=0;entryX=0.614;entryY=0.017;entryDx=0;entryDy=0;exitX=0.5;exitY=1;exitDx=0;exitDy=0;entryPerimeter=0;" edge="1" parent="1" source="dPx7vL41GPMj5rOmJF7R-103" target="dPx7vL41GPMj5rOmJF7R-100">
          <mxGeometry relative="1" as="geometry">
            <mxPoint x="667" y="619" as="sourcePoint" />
            <mxPoint x="770" y="520" as="targetPoint" />
          </mxGeometry>
        </mxCell>
        <mxCell id="dPx7vL41GPMj5rOmJF7R-114" value="" style="endArrow=none;html=1;rounded=0;exitX=1;exitY=0.5;exitDx=0;exitDy=0;entryX=0.007;entryY=0.344;entryDx=0;entryDy=0;entryPerimeter=0;" edge="1" parent="1" source="dPx7vL41GPMj5rOmJF7R-2" target="dPx7vL41GPMj5rOmJF7R-97">
          <mxGeometry relative="1" as="geometry">
            <mxPoint x="610" y="520" as="sourcePoint" />
            <mxPoint x="770" y="520" as="targetPoint" />
          </mxGeometry>
        </mxCell>
        <mxCell id="dPx7vL41GPMj5rOmJF7R-115" value="" style="endArrow=none;html=1;rounded=0;exitX=0.757;exitY=0.94;exitDx=0;exitDy=0;exitPerimeter=0;entryX=0.5;entryY=0;entryDx=0;entryDy=0;" edge="1" parent="1" source="dPx7vL41GPMj5rOmJF7R-103" target="dPx7vL41GPMj5rOmJF7R-101">
          <mxGeometry relative="1" as="geometry">
            <mxPoint x="630" y="520" as="sourcePoint" />
            <mxPoint x="790" y="520" as="targetPoint" />
          </mxGeometry>
        </mxCell>
        <mxCell id="dPx7vL41GPMj5rOmJF7R-116" value="" style="endArrow=none;html=1;rounded=0;exitX=1;exitY=1;exitDx=0;exitDy=0;entryX=0;entryY=0;entryDx=0;entryDy=0;" edge="1" parent="1" source="dPx7vL41GPMj5rOmJF7R-103" target="dPx7vL41GPMj5rOmJF7R-99">
          <mxGeometry relative="1" as="geometry">
            <mxPoint x="650" y="520" as="sourcePoint" />
            <mxPoint x="810" y="520" as="targetPoint" />
          </mxGeometry>
        </mxCell>
        <mxCell id="dPx7vL41GPMj5rOmJF7R-117" value="" style="endArrow=none;html=1;rounded=0;exitX=1;exitY=0.5;exitDx=0;exitDy=0;entryX=0;entryY=0;entryDx=0;entryDy=0;" edge="1" parent="1" source="dPx7vL41GPMj5rOmJF7R-103" target="dPx7vL41GPMj5rOmJF7R-98">
          <mxGeometry relative="1" as="geometry">
            <mxPoint x="650" y="520" as="sourcePoint" />
            <mxPoint x="810" y="520" as="targetPoint" />
          </mxGeometry>
        </mxCell>
        <mxCell id="dPx7vL41GPMj5rOmJF7R-118" value="" style="endArrow=none;html=1;rounded=0;exitX=0.264;exitY=0.95;exitDx=0;exitDy=0;exitPerimeter=0;entryX=0.611;entryY=0.011;entryDx=0;entryDy=0;entryPerimeter=0;" edge="1" parent="1" source="dPx7vL41GPMj5rOmJF7R-103" target="dPx7vL41GPMj5rOmJF7R-102">
          <mxGeometry relative="1" as="geometry">
            <mxPoint x="650" y="520" as="sourcePoint" />
            <mxPoint x="810" y="520" as="targetPoint" />
          </mxGeometry>
        </mxCell>
        <mxCell id="dPx7vL41GPMj5rOmJF7R-119" value="" style="endArrow=none;html=1;rounded=0;exitX=1;exitY=0.25;exitDx=0;exitDy=0;entryX=0.018;entryY=0.676;entryDx=0;entryDy=0;entryPerimeter=0;" edge="1" parent="1" source="dPx7vL41GPMj5rOmJF7R-2" target="dPx7vL41GPMj5rOmJF7R-96">
          <mxGeometry relative="1" as="geometry">
            <mxPoint x="650" y="520" as="sourcePoint" />
            <mxPoint x="810" y="520" as="targetPoint" />
          </mxGeometry>
        </mxCell>
        <mxCell id="dPx7vL41GPMj5rOmJF7R-120" value="" style="endArrow=none;html=1;rounded=0;entryX=0.177;entryY=0.111;entryDx=0;entryDy=0;entryPerimeter=0;exitX=1;exitY=0.75;exitDx=0;exitDy=0;" edge="1" parent="1" source="dPx7vL41GPMj5rOmJF7R-2" target="dPx7vL41GPMj5rOmJF7R-103">
          <mxGeometry relative="1" as="geometry">
            <mxPoint x="650" y="520" as="sourcePoint" />
            <mxPoint x="810" y="520" as="targetPoint" />
          </mxGeometry>
        </mxCell>
        <mxCell id="dPx7vL41GPMj5rOmJF7R-122" value="" style="endArrow=none;html=1;rounded=0;exitX=1;exitY=0;exitDx=0;exitDy=0;entryX=0;entryY=1;entryDx=0;entryDy=0;" edge="1" parent="1" source="dPx7vL41GPMj5rOmJF7R-2" target="dPx7vL41GPMj5rOmJF7R-92">
          <mxGeometry width="50" height="50" relative="1" as="geometry">
            <mxPoint x="610" y="570" as="sourcePoint" />
            <mxPoint x="650" y="490" as="targetPoint" />
          </mxGeometry>
        </mxCell>
        <mxCell id="dPx7vL41GPMj5rOmJF7R-123" style="edgeStyle=orthogonalEdgeStyle;rounded=0;orthogonalLoop=1;jettySize=auto;html=1;exitX=0.5;exitY=1;exitDx=0;exitDy=0;" edge="1" parent="1" source="dPx7vL41GPMj5rOmJF7R-55" target="dPx7vL41GPMj5rOmJF7R-55">
          <mxGeometry relative="1" as="geometry" />
        </mxCell>
        <mxCell id="dPx7vL41GPMj5rOmJF7R-124" value="Project Hope - Er diagram" style="swimlane;whiteSpace=wrap;html=1;" vertex="1" parent="1">
          <mxGeometry x="20" y="10" width="820" height="1070" as="geometry" />
        </mxCell>
        <mxCell id="dPx7vL41GPMj5rOmJF7R-1" value="Recepient" style="whiteSpace=wrap;html=1;align=center;" vertex="1" parent="dPx7vL41GPMj5rOmJF7R-124">
          <mxGeometry x="435" y="190" width="100" height="40" as="geometry" />
        </mxCell>
        <mxCell id="dPx7vL41GPMj5rOmJF7R-7" value="ID" style="ellipse;whiteSpace=wrap;html=1;align=center;" vertex="1" parent="dPx7vL41GPMj5rOmJF7R-124">
          <mxGeometry x="640" y="180" width="70" height="30" as="geometry" />
        </mxCell>
        <mxCell id="dPx7vL41GPMj5rOmJF7R-18" value="postal code" style="ellipse;whiteSpace=wrap;html=1;align=center;" vertex="1" parent="dPx7vL41GPMj5rOmJF7R-124">
          <mxGeometry x="285" y="190" width="90" height="40" as="geometry" />
        </mxCell>
        <mxCell id="dPx7vL41GPMj5rOmJF7R-19" value="address" style="ellipse;whiteSpace=wrap;html=1;align=center;" vertex="1" parent="dPx7vL41GPMj5rOmJF7R-124">
          <mxGeometry x="295" y="140" width="80" height="40" as="geometry" />
        </mxCell>
        <mxCell id="dPx7vL41GPMj5rOmJF7R-20" value="telephone" style="ellipse;whiteSpace=wrap;html=1;align=center;" vertex="1" parent="dPx7vL41GPMj5rOmJF7R-124">
          <mxGeometry x="310" y="85" width="80" height="40" as="geometry" />
        </mxCell>
        <mxCell id="dPx7vL41GPMj5rOmJF7R-24" value="email" style="ellipse;whiteSpace=wrap;html=1;align=center;" vertex="1" parent="dPx7vL41GPMj5rOmJF7R-124">
          <mxGeometry x="630" y="80" width="70" height="30" as="geometry" />
        </mxCell>
        <mxCell id="dPx7vL41GPMj5rOmJF7R-25" value="name" style="ellipse;whiteSpace=wrap;html=1;align=center;" vertex="1" parent="dPx7vL41GPMj5rOmJF7R-124">
          <mxGeometry x="650" y="130" width="70" height="30" as="geometry" />
        </mxCell>
        <mxCell id="dPx7vL41GPMj5rOmJF7R-26" value="" style="endArrow=none;html=1;rounded=0;entryX=-0.005;entryY=0.592;entryDx=0;entryDy=0;entryPerimeter=0;exitX=1.001;exitY=0.435;exitDx=0;exitDy=0;exitPerimeter=0;" edge="1" parent="dPx7vL41GPMj5rOmJF7R-124" source="dPx7vL41GPMj5rOmJF7R-1" target="dPx7vL41GPMj5rOmJF7R-7">
          <mxGeometry width="50" height="50" relative="1" as="geometry">
            <mxPoint x="425" y="270" as="sourcePoint" />
            <mxPoint x="475" y="220" as="targetPoint" />
          </mxGeometry>
        </mxCell>
        <mxCell id="dPx7vL41GPMj5rOmJF7R-27" value="" style="endArrow=none;html=1;rounded=0;entryX=0.738;entryY=0.952;entryDx=0;entryDy=0;exitX=0.364;exitY=-0.003;exitDx=0;exitDy=0;exitPerimeter=0;entryPerimeter=0;" edge="1" parent="dPx7vL41GPMj5rOmJF7R-124" source="dPx7vL41GPMj5rOmJF7R-1" target="dPx7vL41GPMj5rOmJF7R-21">
          <mxGeometry width="50" height="50" relative="1" as="geometry">
            <mxPoint x="475" y="310" as="sourcePoint" />
            <mxPoint x="449.9999999999998" y="60" as="targetPoint" />
          </mxGeometry>
        </mxCell>
        <mxCell id="dPx7vL41GPMj5rOmJF7R-28" value="" style="endArrow=none;html=1;rounded=0;entryX=0.5;entryY=1;entryDx=0;entryDy=0;exitX=0.574;exitY=0.002;exitDx=0;exitDy=0;exitPerimeter=0;" edge="1" parent="dPx7vL41GPMj5rOmJF7R-124" source="dPx7vL41GPMj5rOmJF7R-1" target="dPx7vL41GPMj5rOmJF7R-22">
          <mxGeometry width="50" height="50" relative="1" as="geometry">
            <mxPoint x="475" y="310" as="sourcePoint" />
            <mxPoint x="526.2132034355966" y="65.6066017177983" as="targetPoint" />
          </mxGeometry>
        </mxCell>
        <mxCell id="dPx7vL41GPMj5rOmJF7R-29" value="" style="endArrow=none;html=1;rounded=0;entryX=0.5;entryY=1;entryDx=0;entryDy=0;exitX=0.737;exitY=-0.003;exitDx=0;exitDy=0;exitPerimeter=0;" edge="1" parent="dPx7vL41GPMj5rOmJF7R-124" source="dPx7vL41GPMj5rOmJF7R-1" target="dPx7vL41GPMj5rOmJF7R-23">
          <mxGeometry width="50" height="50" relative="1" as="geometry">
            <mxPoint x="475" y="310" as="sourcePoint" />
            <mxPoint x="608.8600000000001" y="78.27999999999997" as="targetPoint" />
          </mxGeometry>
        </mxCell>
        <mxCell id="dPx7vL41GPMj5rOmJF7R-30" value="" style="endArrow=none;html=1;rounded=0;entryX=0.381;entryY=0.967;entryDx=0;entryDy=0;entryPerimeter=0;exitX=0.882;exitY=0.002;exitDx=0;exitDy=0;exitPerimeter=0;" edge="1" parent="dPx7vL41GPMj5rOmJF7R-124" source="dPx7vL41GPMj5rOmJF7R-1" target="dPx7vL41GPMj5rOmJF7R-24">
          <mxGeometry width="50" height="50" relative="1" as="geometry">
            <mxPoint x="475" y="310" as="sourcePoint" />
            <mxPoint x="525" y="260" as="targetPoint" />
          </mxGeometry>
        </mxCell>
        <mxCell id="dPx7vL41GPMj5rOmJF7R-31" value="" style="endArrow=none;html=1;rounded=0;entryX=0.046;entryY=0.741;entryDx=0;entryDy=0;entryPerimeter=0;exitX=1.003;exitY=0.074;exitDx=0;exitDy=0;exitPerimeter=0;" edge="1" parent="dPx7vL41GPMj5rOmJF7R-124" source="dPx7vL41GPMj5rOmJF7R-1" target="dPx7vL41GPMj5rOmJF7R-25">
          <mxGeometry width="50" height="50" relative="1" as="geometry">
            <mxPoint x="475" y="310" as="sourcePoint" />
            <mxPoint x="525" y="260" as="targetPoint" />
          </mxGeometry>
        </mxCell>
        <mxCell id="dPx7vL41GPMj5rOmJF7R-32" value="" style="endArrow=none;html=1;rounded=0;entryX=1;entryY=0.5;entryDx=0;entryDy=0;exitX=0.001;exitY=0.678;exitDx=0;exitDy=0;exitPerimeter=0;" edge="1" parent="dPx7vL41GPMj5rOmJF7R-124" source="dPx7vL41GPMj5rOmJF7R-1" target="dPx7vL41GPMj5rOmJF7R-18">
          <mxGeometry width="50" height="50" relative="1" as="geometry">
            <mxPoint x="515" y="340" as="sourcePoint" />
            <mxPoint x="565" y="290" as="targetPoint" />
          </mxGeometry>
        </mxCell>
        <mxCell id="dPx7vL41GPMj5rOmJF7R-33" value="" style="endArrow=none;html=1;rounded=0;entryX=1;entryY=0.5;entryDx=0;entryDy=0;exitX=0;exitY=0.25;exitDx=0;exitDy=0;" edge="1" parent="dPx7vL41GPMj5rOmJF7R-124" source="dPx7vL41GPMj5rOmJF7R-1" target="dPx7vL41GPMj5rOmJF7R-19">
          <mxGeometry width="50" height="50" relative="1" as="geometry">
            <mxPoint x="515" y="340" as="sourcePoint" />
            <mxPoint x="565" y="290" as="targetPoint" />
          </mxGeometry>
        </mxCell>
        <mxCell id="dPx7vL41GPMj5rOmJF7R-34" value="" style="endArrow=none;html=1;rounded=0;entryX=1;entryY=0.5;entryDx=0;entryDy=0;exitX=0.059;exitY=-0.018;exitDx=0;exitDy=0;exitPerimeter=0;" edge="1" parent="dPx7vL41GPMj5rOmJF7R-124" source="dPx7vL41GPMj5rOmJF7R-1" target="dPx7vL41GPMj5rOmJF7R-20">
          <mxGeometry width="50" height="50" relative="1" as="geometry">
            <mxPoint x="515" y="340" as="sourcePoint" />
            <mxPoint x="565" y="290" as="targetPoint" />
          </mxGeometry>
        </mxCell>
        <mxCell id="dPx7vL41GPMj5rOmJF7R-21" value="birthday" style="ellipse;whiteSpace=wrap;html=1;align=center;" vertex="1" parent="dPx7vL41GPMj5rOmJF7R-124">
          <mxGeometry x="380" y="45" width="80" height="40" as="geometry" />
        </mxCell>
        <mxCell id="dPx7vL41GPMj5rOmJF7R-22" value="NIC" style="ellipse;whiteSpace=wrap;html=1;align=center;" vertex="1" parent="dPx7vL41GPMj5rOmJF7R-124">
          <mxGeometry x="475" y="50" width="60" height="30" as="geometry" />
        </mxCell>
        <mxCell id="dPx7vL41GPMj5rOmJF7R-23" value="password" style="ellipse;whiteSpace=wrap;html=1;align=center;" vertex="1" parent="dPx7vL41GPMj5rOmJF7R-124">
          <mxGeometry x="550" y="60" width="70" height="40" as="geometry" />
        </mxCell>
        <mxCell id="dPx7vL41GPMj5rOmJF7R-129" value="1" style="text;html=1;whiteSpace=wrap;strokeColor=none;fillColor=none;align=center;verticalAlign=middle;rounded=0;" vertex="1" parent="dPx7vL41GPMj5rOmJF7R-124">
          <mxGeometry x="480" y="230" width="60" height="30" as="geometry" />
        </mxCell>
        <mxCell id="dPx7vL41GPMj5rOmJF7R-130" value="1" style="text;html=1;whiteSpace=wrap;strokeColor=none;fillColor=none;align=center;verticalAlign=middle;rounded=0;" vertex="1" parent="dPx7vL41GPMj5rOmJF7R-124">
          <mxGeometry x="210" y="540" width="60" height="30" as="geometry" />
        </mxCell>
        <mxCell id="dPx7vL41GPMj5rOmJF7R-131" value="1" style="text;html=1;whiteSpace=wrap;strokeColor=none;fillColor=none;align=center;verticalAlign=middle;rounded=0;" vertex="1" parent="dPx7vL41GPMj5rOmJF7R-124">
          <mxGeometry x="480" y="560" width="60" height="30" as="geometry" />
        </mxCell>
        <mxCell id="dPx7vL41GPMj5rOmJF7R-132" value="1" style="text;html=1;whiteSpace=wrap;strokeColor=none;fillColor=none;align=center;verticalAlign=middle;rounded=0;" vertex="1" parent="dPx7vL41GPMj5rOmJF7R-124">
          <mxGeometry x="180" y="880" width="60" height="30" as="geometry" />
        </mxCell>
        <mxCell id="dPx7vL41GPMj5rOmJF7R-133" value="M" style="text;html=1;whiteSpace=wrap;strokeColor=none;fillColor=none;align=center;verticalAlign=middle;rounded=0;" vertex="1" parent="dPx7vL41GPMj5rOmJF7R-124">
          <mxGeometry x="390" y="910" width="60" height="30" as="geometry" />
        </mxCell>
        <mxCell id="dPx7vL41GPMj5rOmJF7R-134" value="M" style="text;html=1;whiteSpace=wrap;strokeColor=none;fillColor=none;align=center;verticalAlign=middle;rounded=0;" vertex="1" parent="dPx7vL41GPMj5rOmJF7R-124">
          <mxGeometry x="480" y="860" width="60" height="30" as="geometry" />
        </mxCell>
        <mxCell id="dPx7vL41GPMj5rOmJF7R-135" value="M" style="text;html=1;whiteSpace=wrap;strokeColor=none;fillColor=none;align=center;verticalAlign=middle;rounded=0;" vertex="1" parent="dPx7vL41GPMj5rOmJF7R-124">
          <mxGeometry x="400" y="550" width="60" height="30" as="geometry" />
        </mxCell>
        <mxCell id="dPx7vL41GPMj5rOmJF7R-136" value="M" style="text;html=1;whiteSpace=wrap;strokeColor=none;fillColor=none;align=center;verticalAlign=middle;rounded=0;" vertex="1" parent="dPx7vL41GPMj5rOmJF7R-124">
          <mxGeometry x="480" y="490" width="60" height="30" as="geometry" />
        </mxCell>
      </root>
    </mxGraphModel>
  </diagram>
</mxfile>
